PathFileType	4	(X/Y/Z)	./resultDataOpenSim/trcMotMarkerGrf/sub09/qtm-04-04.trc
DataRate	CameraRate	NumFrames	NumMarkers	Units	OrigDataRate	OrigDataStartFrame	OrigNumFrames
250.000000	250.000000	9	24	m	250.000000	125	496
Frame#	Time	L.Toe.Tip			R.Toe.Tip			L.Ankle.Lat			R.Ankle.Lat			L.Ankle.Med			R.Ankle.Med			L.Heel			R.Heel			L.Knee.Lat			R.Knee.Lat			L.Knee.Med			R.Knee.Med			L.Thigh.Upper			R.Thigh.Upper			L.ASIS			R.ASIS			V.Sacral			L.Acromium			R.Acromium			C7			L.Elbow			R.Elbow			L.Wrist.Lat			R.Wrist.Lat
		X1	Y1	Z1	X2	Y2	Z2	X3	Y3	Z3	X4	Y4	Z4	X5	Y5	Z5	X6	Y6	Z6	X7	Y7	Z7	X8	Y8	Z8	X9	Y9	Z9	X10	Y10	Z10	X11	Y11	Z11	X12	Y12	Z12	X13	Y13	Z13	X14	Y14	Z14	X15	Y15	Z15	X16	Y16	Z16	X17	Y17	Z17	X18	Y18	Z18	X19	Y19	Z19	X20	Y20	Z20	X21	Y21	Z21	X22	Y22	Z22	X23	Y23	Z23	X24	Y24	Z24

125	0.496	-0.18381604	0.087392199	-0.020308751	-0.65283808	0.03868628	0.080212296	-0.33748511	0.10354322	-0.053877271	-0.7992691	0.05756146	0.11169669	-0.31378998	0.12485698	0.040084849	-0.78567948	0.092957457	0.019001885	-0.39724667	0.057526958	-0.0012727155	-0.8683947	0.037270476	0.060226665	-0.37013066	0.51980162	-0.092932544	-0.63002311	0.48274925	0.17490461	-0.36910164	0.51731	0.031587188	-0.64991553	0.47717131	0.047594107	-0.58078381	0.88461557	-0.13415085	-0.61862804	0.89027635	0.24039588	-0.51358446	0.96827309	-0.067395204	-0.51395625	0.9715527	0.17193137	-0.67936281	1.0268564	0.047803706	-0.50719704	1.4210456	-0.11529428	-0.52364715	1.4275281	0.21425232	-0.58276329	1.4764811	0.049224649	-0.66491596	1.089792	-0.16292449	-0.65690546	1.0771818	0.30413073	-0.56408112	0.84958882	-0.20431581	-0.43068139	0.91231212	0.26879773
126	0.5	-0.16639983	0.086930908	-0.018590155	-0.65287518	0.038673941	0.080224265	-0.32073276	0.10230922	-0.053452068	-0.79896321	0.057849045	0.11182976	-0.29737842	0.12443812	0.040542883	-0.7855187	0.092984729	0.01899569	-0.37995381	0.0562393	-0.0010198604	-0.86840421	0.037441709	0.060144561	-0.3646558	0.51762692	-0.092958924	-0.62783337	0.48198028	0.1750597	-0.36315748	0.51511356	0.031922079	-0.64743643	0.4767864	0.047506646	-0.57453656	0.88291335	-0.13388299	-0.61296661	0.88926623	0.24065725	-0.50716291	0.96683884	-0.067155537	-0.5078618	0.97044943	0.17223542	-0.67299302	1.0252011	0.047720517	-0.50152079	1.4198351	-0.11528167	-0.51808899	1.426261	0.21430727	-0.57713871	1.4752304	0.049281431	-0.65973874	1.0890236	-0.16334541	-0.65047137	1.0754575	0.30426061	-0.56002294	0.84849037	-0.20473839	-0.42332325	0.91217408	0.26847305
127	0.504	-0.14926447	0.086526638	-0.016904226	-0.65291126	0.038640146	0.080256753	-0.30430481	0.10125626	-0.053044805	-0.79882309	0.058006472	0.1118931	-0.28119545	0.12415534	0.040960506	-0.78534007	0.093033358	0.0190051	-0.36301431	0.05522121	-0.00078887052	-0.86840795	0.037637878	0.0600562	-0.35914801	0.51531329	-0.092953808	-0.62554757	0.48120093	0.17522438	-0.35731762	0.51273561	0.032250215	-0.6451608	0.47635673	0.047387699	-0.56811093	0.88118052	-0.13357196	-0.60724921	0.88818793	0.24088659	-0.50072541	0.96533757	-0.066919667	-0.50172351	0.9692841	0.17253755	-0.66663096	1.0235809	0.047719817	-0.49587849	1.4185751	-0.1152976	-0.51250611	1.4248998	0.21433437	-0.57153372	1.4739428	0.049337082	-0.65449023	1.088143	-0.16385744	-0.64402691	1.0736672	0.30437196	-0.5559954	0.84730581	-0.20521533	-0.41594052	0.91192434	0.2680836
128	0.508	-0.13245938	0.086188211	-0.015271355	-0.65293059	0.038596143	0.080327221	-0.28822168	0.10036688	-0.05267085	-0.79877741	0.05809919	0.11191922	-0.26530611	0.12399954	0.041347965	-0.78515879	0.093108791	0.019018373	-0.34639837	0.054416943	-0.00052047289	-0.86840173	0.037856074	0.059961704	-0.35356299	0.512855	-0.092941995	-0.62316319	0.48041448	0.17541597	-0.35163963	0.51014863	0.032504728	-0.64298041	0.47585963	0.047349207	-0.56159723	0.87938006	-0.13325184	-0.60149092	0.88704071	0.2411002	-0.49426362	0.96378098	-0.06669407	-0.49553808	0.96805525	0.17284119	-0.66036874	1.0219422	0.04772671	-0.49025332	1.4172594	-0.11533397	-0.50692056	1.4234666	0.21434509	-0.5659399	1.4726023	0.049381489	-0.64924988	1.0871839	-0.16430717	-0.637575	1.0718129	0.30446687	-0.55193584	0.84605541	-0.20572647	-0.40855778	0.91156563	0.26764509
129	0.512	-0.1160319	0.085906428	-0.013703049	-0.65293809	0.038549573	0.080420052	-0.27250004	0.099617201	-0.05233899	-0.79874925	0.058190662	0.11193728	-0.24978792	0.1239579	0.041685567	-0.78498911	0.093211362	0.019022644	-0.33010801	0.053787812	-0.00018736393	-0.86837851	0.038100782	0.059860463	-0.347923	0.51026917	-0.092913338	-0.62067388	0.47962572	0.17567339	-0.34606798	0.50737956	0.032690978	-0.64066323	0.4753383	0.047426734	-0.55512768	0.87748035	-0.13293735	-0.59568628	0.88582298	0.24129594	-0.48777672	0.96218165	-0.066479352	-0.48930632	0.96676209	0.17313678	-0.65417784	1.0202168	0.047685033	-0.48461205	1.4158707	-0.11536744	-0.50134564	1.4219824	0.21435684	-0.56034322	1.4711865	0.049415123	-0.64406661	1.0861649	-0.16462374	-0.63111731	1.0698944	0.30454712	-0.54781149	0.84474728	-0.20625703	-0.40119958	0.91110394	0.26718008
130	0.516	-0.10000613	0.085662665	-0.012215812	-0.65294791	0.038499607	0.080518034	-0.25715266	0.098986187	-0.052046989	-0.79871318	0.058303685	0.11195216	-0.23469348	0.12400606	0.04194858	-0.78483134	0.093335603	0.019009236	-0.31417928	0.053321343	0.00017965193	-0.86833548	0.03837863	0.059745561	-0.34226667	0.5075922	-0.092849592	-0.61808497	0.47883233	0.17599041	-0.34051154	0.5044924	0.032856963	-0.63809716	0.47482683	0.047578007	-0.54875828	0.87548802	-0.13263413	-0.58983725	0.8845432	0.24146961	-0.4812646	0.96054731	-0.066280351	-0.4830276	0.96540806	0.17341075	-0.647974	1.0183812	0.047607835	-0.47894292	1.4144035	-0.1153861	-0.49577199	1.4204514	0.21437434	-0.55475029	1.4696961	0.049456663	-0.63889612	1.0850785	-0.16486398	-0.62465832	1.0679157	0.30460971	-0.5436652	0.84336983	-0.20682559	-0.39387682	0.91054842	0.26670577
131	0.52	-0.084393184	0.085434544	-0.010827912	-0.65296668	0.038442482	0.080614866	-0.24219303	0.098457976	-0.051793242	-0.79866695	0.058443646	0.11195959	-0.22003128	0.12411473	0.042128102	-0.78469028	0.09347026	0.018958341	-0.29865134	0.053014298	0.00052966627	-0.86828023	0.038693631	0.05960639	-0.33658795	0.50485987	-0.092759676	-0.61543041	0.4780285	0.17630868	-0.33490489	0.50154962	0.03304979	-0.63532093	0.47430216	0.04774901	-0.54243691	0.87342797	-0.13235053	-0.58396618	0.88322133	0.24162771	-0.47472486	0.95887728	-0.066107629	-0.47669942	0.96399783	0.17366091	-0.64170057	1.0164329	0.047536478	-0.47326203	1.4128674	-0.11539924	-0.49018638	1.4188687	0.21439378	-0.54917694	1.4681444	0.049516164	-0.63368544	1.0839111	-0.1650976	-0.61820257	1.0658859	0.30464925	-0.53954479	0.84191258	-0.20745743	-0.38659129	0.90990358	0.26623224
132	0.524	-0.069201406	0.085202559	-0.0095420529	-0.65298667	0.03838129	0.080709169	-0.22764009	0.098021305	-0.051596896	-0.79861294	0.058610565	0.11195316	-0.20578033	0.12425493	0.042226648	-0.78457069	0.09360384	0.018849564	-0.2835546	0.052855669	0.00082348118	-0.86822687	0.039049343	0.059433458	-0.33083609	0.50208569	-0.092658648	-0.61275642	0.47721068	0.17658533	-0.32920789	0.49859318	0.033301426	-0.63242127	0.47371925	0.047918113	-0.53609044	0.87131769	-0.13208121	-0.57810259	0.88187639	0.24178349	-0.46814895	0.95716537	-0.065966786	-0.47031717	0.96253565	0.17389344	-0.63535359	1.0143881	0.047487994	-0.46758629	1.4112704	-0.11542151	-0.48458399	1.4172306	0.21440966	-0.54359877	1.466535	0.049559398	-0.62841944	1.0826553	-0.16535055	-0.61174743	1.0638116	0.30466404	-0.5354527	0.84037767	-0.20815588	-0.37933848	0.90916697	0.2657639
133	0.528	-0.054439336	0.084952027	-0.0083466013	-0.65299529	0.038325938	0.080800212	-0.21351228	0.097663538	-0.051490632	-0.79855696	0.058803503	0.11192602	-0.19191084	0.12440439	0.042265489	-0.78442012	0.093744521	0.018712648	-0.26891407	0.052820243	0.0010349209	-0.86818326	0.039454256	0.059220725	-0.32497964	0.4992533	-0.092527927	-0.61007661	0.4763803	0.17682216	-0.32340004	0.4956435	0.033626696	-0.62946215	0.4730535	0.048092393	-0.52967283	0.86916657	-0.13180847	-0.57225007	0.88050438	0.24193839	-0.46152422	0.95540781	-0.065852152	-0.46387716	0.9610257	0.17410989	-0.6289606	1.0122813	0.047455116	-0.46191877	1.4096138	-0.11545991	-0.47896481	1.4155392	0.2144177	-0.53794957	1.4648632	0.049522167	-0.62310323	1.0813128	-0.16562187	-0.60528296	1.0616921	0.30465694	-0.53135425	0.83877292	-0.20890418	-0.37211588	0.90833608	0.26529778
